<svg width="123" height="40" viewBox="0 0 123 40" fill="none" xmlns="http://www.w3.org/2000/svg">
<path d="M10.6203 27.9062H15.4513L17.8799 31.0306L20.2692 33.8137L24.772 39.4586H19.4684L16.3702 35.6515L14.7818 33.3936L10.6203 27.9062ZM25.1789 23.8103C25.1789 26.7422 24.6232 29.2365 23.5117 31.2931C22.409 33.3498 20.9037 34.9208 18.9958 36.006C17.0966 37.0825 14.9612 37.6207 12.5895 37.6207C10.2002 37.6207 8.05603 37.0781 6.15689 35.9928C4.25775 34.9076 2.75682 33.3367 1.65409 31.28C0.551364 29.2233 0 26.7334 0 23.8103C0 20.8785 0.551364 18.3842 1.65409 16.3276C2.75682 14.2709 4.25775 12.7043 6.15689 11.6278C8.05603 10.5426 10.2002 10 12.5895 10C14.9612 10 17.0966 10.5426 18.9958 11.6278C20.9037 12.7043 22.409 14.2709 23.5117 16.3276C24.6232 18.3842 25.1789 20.8785 25.1789 23.8103ZM19.4159 23.8103C19.4159 21.9112 19.1314 20.3096 18.5626 19.0056C18.0025 17.7016 17.2104 16.7126 16.1865 16.0387C15.1625 15.3649 13.9635 15.0279 12.5895 15.0279C11.2154 15.0279 10.0164 15.3649 8.99248 16.0387C7.96852 16.7126 7.1721 17.7016 6.60323 19.0056C6.04312 20.3096 5.76306 21.9112 5.76306 23.8103C5.76306 25.7095 6.04312 27.3111 6.60323 28.6151C7.1721 29.9191 7.96852 30.9081 8.99248 31.5819C10.0164 32.2558 11.2154 32.5928 12.5895 32.5928C13.9635 32.5928 15.1625 32.2558 16.1865 31.5819C17.2104 30.9081 18.0025 29.9191 18.5626 28.6151C19.1314 27.3111 19.4159 25.7095 19.4159 23.8103Z" fill="#3FB5E8"/>
<path d="M42.2154 28.6676V17.089H47.8078V37.2531H42.4386V33.5905H42.2285C41.7734 34.772 41.0164 35.7215 39.9574 36.4392C38.9072 37.1568 37.6251 37.5157 36.111 37.5157C34.7632 37.5157 33.5774 37.2094 32.5534 36.5967C31.5295 35.9841 30.7287 35.1133 30.151 33.9843C29.5822 32.8553 29.2934 31.5032 29.2846 29.9279V17.089H34.877V28.9301C34.8858 30.1204 35.2052 31.0612 35.8353 31.7526C36.4655 32.444 37.31 32.7897 38.369 32.7897C39.0429 32.7897 39.673 32.6365 40.2594 32.3302C40.8458 32.0152 41.3183 31.5513 41.6772 30.9387C42.0447 30.3261 42.2242 29.569 42.2154 28.6676Z" fill="#3FB5E8"/>
<path d="M52.2811 37.2531V17.089H57.8735V37.2531H52.2811Z" fill="#3FB5E8"/>
<path d="M67.4206 31.4507L67.4337 24.7424H68.2476L74.7065 17.089H81.1259L72.4485 27.2235H71.1226L67.4206 31.4507ZM62.3533 37.2531V10.3676H67.9457V37.2531H62.3533ZM74.9559 37.2531L69.0222 28.4707L72.7504 24.5192L81.5066 37.2531H74.9559Z" fill="#3FB5E8"/>
<path d="M88.9369 31.4507L88.95 24.7424H89.7639L96.2228 17.089H102.642L93.9648 27.2235H92.6389L88.9369 31.4507ZM83.8696 37.2531V10.3676H89.462V37.2531H83.8696ZM96.4722 37.2531L90.5385 28.4707L94.2667 24.5192L103.023 37.2531H96.4722Z" fill="#3FB5E8"/>
<path d="M113.745 37.6469C111.671 37.6469 109.885 37.2269 108.389 36.3867C106.901 35.5378 105.755 34.3388 104.949 32.7897C104.144 31.2319 103.742 29.3896 103.742 27.2629C103.742 25.1888 104.144 23.3684 104.949 21.8018C105.755 20.2352 106.888 19.0144 108.349 18.1392C109.82 17.264 111.544 16.8264 113.522 16.8264C114.852 16.8264 116.09 17.0408 117.237 17.4697C118.392 17.8897 119.399 18.5243 120.256 19.3732C121.123 20.2221 121.797 21.2898 122.278 22.5763C122.759 23.8541 123 25.3507 123 27.066V28.602H105.973V25.1362H117.736C117.736 24.3311 117.561 23.6178 117.211 22.9964C116.861 22.375 116.375 21.8893 115.754 21.5393C115.141 21.1804 114.428 21.001 113.614 21.001C112.765 21.001 112.012 21.1979 111.356 21.5918C110.708 21.9768 110.201 22.4976 109.833 23.154C109.465 23.8016 109.277 24.5236 109.268 25.32V28.6151C109.268 29.6128 109.452 30.4748 109.82 31.2012C110.196 31.9276 110.726 32.4878 111.408 32.8816C112.091 33.2754 112.9 33.4723 113.837 33.4723C114.458 33.4723 115.027 33.3848 115.543 33.2098C116.06 33.0347 116.502 32.7722 116.869 32.4221C117.237 32.072 117.517 31.6432 117.71 31.1356L122.882 31.4769C122.619 32.7197 122.081 33.8049 121.267 34.7326C120.462 35.6515 119.421 36.3692 118.143 36.8855C116.874 37.3931 115.408 37.6469 113.745 37.6469Z" fill="#3FB5E8"/>
<path fill-rule="evenodd" clip-rule="evenodd" d="M64.9142 0.585786C65.6953 1.36683 65.6953 2.63317 64.9142 3.41421L54.5 13.8284L47.5858 6.91421C46.8047 6.13316 46.8047 4.86684 47.5858 4.08579C48.3668 3.30474 49.6332 3.30474 50.4142 4.08579L54.5 8.17157L62.0858 0.585786C62.8668 -0.195262 64.1332 -0.195262 64.9142 0.585786Z" fill="white"/>
</svg>
