<svg width="22" height="22" viewBox="0 0 22 22" fill="none" xmlns="http://www.w3.org/2000/svg">
<path fill-rule="evenodd" clip-rule="evenodd" d="M14.0603 0.0219029C15.0944 0.13984 15.8484 0.31823 16.5873 0.619854C19.8839 1.96547 22 5.09598 22 8.62746C22 12.1531 19.8828 15.2903 16.5993 16.6301C13.983 17.6977 10.9319 17.3742 8.57676 15.7797L8.08519 15.4469L4.89737 18.6337C2.44448 21.0858 1.66493 21.8406 1.5159 21.9079C1.11719 22.0877 0.620066 21.9984 0.313793 21.6919C0.0189686 21.3969 -0.0842705 20.8864 0.0737076 20.5048C0.122982 20.3858 1.04287 19.4376 3.34875 17.1289L6.55529 13.9184L6.22591 13.4259C4.50994 10.8596 4.29042 7.61615 5.64465 4.83832C7.08839 1.8769 10.1836 -0.0425985 13.4453 0.000718198C13.7125 0.00424898 13.9893 0.0138079 14.0603 0.0219029ZM12.2528 2.25702C11.7574 2.34322 10.9674 2.60601 10.5051 2.83844C8.73702 3.72742 7.49919 5.33031 7.05595 7.30496C6.97569 7.66248 6.96205 7.85465 6.96205 8.62746C6.96205 9.39506 6.97595 9.59356 7.05414 9.9413C7.5736 12.2519 9.16456 14.0315 11.3658 14.7643C12.0872 15.0044 12.5565 15.0782 13.3717 15.0797C14.4308 15.0816 15.2995 14.8865 16.2176 14.4405C17.2612 13.9336 18.2638 13.0292 18.8908 12.0291C19.1272 11.6519 19.4512 10.9239 19.586 10.467C19.9604 9.19807 19.9279 7.72612 19.4986 6.50903C19.1635 5.55882 18.6978 4.82592 17.9563 4.0817C16.8312 2.9525 15.5655 2.35269 13.9312 2.1743C13.6204 2.14037 12.6479 2.1883 12.2528 2.25702Z" fill="white"/>
</svg>
